<?xml version="1.0" encoding="utf-8"?>
<!-- Generator: Adobe Illustrator 24.0.3, SVG Export Plug-In . SVG Version: 6.00 Build 0)  -->
<svg version="1.1" id="Layer_1" xmlns="http://www.w3.org/2000/svg" xmlns:xlink="http://www.w3.org/1999/xlink" x="0px" y="0px"
	 viewBox="0 0 396.4 81.8" style="enable-background:new 0 0 396.4 81.8;" xml:space="preserve">
<style type="text/css">
	.st0{fill:#006CFF;}
	.st1{fill:#4C5F7F;}
</style>
<g>
	<polygon class="st0" points="59.5,0 49,19.8 55.5,32 66.7,10.7 75.9,10.7 60,40.7 76.1,71.1 66.9,71.1 34.9,10.7 0.2,10.7 
		16.1,40.7 0,71.2 34.7,71.2 39.9,61.5 33.5,49.4 27.6,60.5 18.4,60.5 28.9,40.7 18.7,21.4 27.9,21.4 59.5,81.4 59.7,81.8 
		94.5,81.8 72.8,40.7 94.3,0 	"/>
	<g>
		<path class="st1" d="M149.3,57.8v7.7h-36.9V16.3h35.9V24h-26.8v12.8h23.7v7.5h-23.7v13.6H149.3z"/>
		<path class="st1" d="M189.1,65.5l-13.3-18.7l-13.2,18.7h-10.4l18.3-25.1l-17.3-24.1h10.3L176,33.8l12.4-17.5h9.9l-17.2,23.7
			l18.5,25.4H189.1z"/>
		<path class="st1" d="M239.4,65.5L226,46.8l-13.2,18.7h-10.4l18.3-25.1l-17.3-24.1h10.3l12.6,17.5l12.4-17.5h9.9l-17.2,23.7
			l18.5,25.4H239.4z"/>
		<path class="st1" d="M291.6,54.1H267l-4.8,11.4h-9.4l22.1-49.2h9L306,65.5h-9.5L291.6,54.1z M288.6,47l-9.3-21.5L270.1,47H288.6z"
			/>
		<path class="st1" d="M306,40.9c0-14.7,11.2-25.3,26.3-25.3c8,0,14.9,2.9,19.4,8.2l-5.9,5.6c-3.6-3.9-8-5.8-13.1-5.8
			c-10.2,0-17.6,7.2-17.6,17.3s7.4,17.3,17.6,17.3c5.1,0,9.5-1.9,13.1-5.8l5.9,5.6c-4.6,5.3-11.4,8.2-19.5,8.2
			C317.3,66.2,306,55.6,306,40.9z"/>
		<path class="st1" d="M370.9,24h-16.3v-7.7h41.7V24h-16.3v41.4h-9.1V24z"/>
	</g>
	<g>
		<path class="st1" d="M391.9,61.8c0,2.1-1.6,3.7-3.7,3.7s-3.7-1.6-3.7-3.7c0-2.1,1.6-3.7,3.7-3.7C390.3,58.1,391.9,59.7,391.9,61.8
			z M391.3,61.8c0-1.8-1.3-3.1-3.1-3.1c-1.8,0-3.1,1.4-3.1,3.1s1.3,3.1,3.1,3.1C390,64.9,391.3,63.5,391.3,61.8z M389.3,62.4
			l0.9,1.4h-0.9l-0.8-1.3h-0.1h-0.8v1.3h-0.9v-4.1h1.7c1.1,0,1.7,0.6,1.7,1.4C390.1,61.8,389.8,62.2,389.3,62.4z M388.3,61.9
			c0.6,0,0.9-0.3,0.9-0.7c0-0.5-0.3-0.7-0.9-0.7h-0.8v1.5H388.3z"/>
	</g>
</g>
</svg>
