<svg enable-background="new 0 0 201.3 50" viewBox="0 0 201.3 50" xmlns="http://www.w3.org/2000/svg" xmlns:xlink="http://www.w3.org/1999/xlink"><linearGradient id="a" gradientTransform="matrix(1 0 0 -1 0 -875.8734)" gradientUnits="userSpaceOnUse" x1="1.0781" x2="49.4576" y1="-907.8929" y2="-894.1017"><stop offset="0" stop-color="#fcd305"/><stop offset="1" stop-color="#f57f20"/></linearGradient><g fill="#535f7f"><path d="m57.3 30.3h5.3c.4 2.5 2.1 3.5 4.7 3.5 2.5 0 3.9-1 3.9-2.5 0-2-2.7-2.3-5.6-2.8-3.8-.8-7.6-1.8-7.6-6.5 0-4.6 3.8-6.8 8.7-6.8 5.6 0 8.8 2.8 9.2 7.1h-5.1c-.3-2.3-1.7-3.1-4.1-3.1-2.2 0-3.7.8-3.7 2.4 0 1.8 2.8 2 5.9 2.6 3.6.8 7.6 1.8 7.6 6.8 0 4.3-3.7 6.9-9 6.9-6.4 0-9.9-3-10.2-7.6z"/><path d="m91.9 34.9c-1.2 1.6-2.7 2.9-6.4 2.9-4.4 0-7.5-2.3-7.5-6.6 0-4.7 3.8-6.2 8.6-6.9 3.5-.5 5.2-.8 5.2-2.4 0-1.5-1.2-2.5-3.6-2.5-2.7 0-4 1-4.1 3h-5.1c.2-3.8 3-7.1 9.2-7.1 6.4 0 9 2.9 9 7.9v10.9c0 1.6.2 2.6.8 3v.2h-5.5c-.3-.4-.5-1.4-.6-2.4zm0-5.2v-3.2c-1 .6-2.5.9-4 1.3-3 .7-4.4 1.3-4.4 3.3s1.3 2.7 3.3 2.7c3.3 0 5.1-2 5.1-4.1z"/><path d="m106.4 34.6-.1 2.7h-5.5v-29.9h5.7v11h.1c1.2-1.8 3-3.2 6-3.2 5.4 0 9.2 4.6 9.2 11.3 0 6.9-3.7 11.3-9.1 11.3-2.9.1-5-1.2-6.3-3.2zm9.7-8c0-4-1.6-6.7-4.8-6.7-3.6 0-4.9 2.9-4.9 6.8s2 6.4 5.1 6.4c3 0 4.6-2.4 4.6-6.5z"/><path d="m130 19.3h.1c1.3-2.4 2.8-3.7 5.3-3.7.6 0 1 0 1.3.2v5h-.1c-3.7-.4-6.4 1.6-6.4 6.1v10.4h-5.7v-21.4h5.5z"/><path d="m137.5 26.5c0-6.3 4.3-11.3 10.6-11.3 6.9 0 10.6 5.3 10.6 12.9h-15.6c.4 3.3 2.3 5.3 5.5 5.3 2.2 0 3.5-1 4.1-2.6h5.6c-.8 3.8-4.2 7-9.7 7-7.1.1-11.1-4.9-11.1-11.3zm5.7-2.3h9.5c-.2-2.7-2-4.6-4.6-4.6-3 .1-4.4 1.8-4.9 4.6z"/><path d="m161.6 15.7h2.6v3.7h.1c1.5-2.5 3.9-4.2 7.3-4.2 5.2 0 8.9 4.1 8.9 11.3 0 6.6-3.4 11.3-9.1 11.3-3.3 0-5.5-1.3-7.1-3.7h-.1v10.1h-2.6zm16.3 10.8c0-5.4-2.3-9.1-6.6-9.1-4.8 0-7.3 4.1-7.3 9.2 0 5.3 2.4 9.1 7.3 9.1 4.4-.1 6.6-4.1 6.6-9.2z"/><path d="m182.6 26.5c0-6.4 3.6-11.3 9.9-11.3 4.8 0 8 2.6 8.7 7h-2.6c-.6-3.2-2.8-4.8-6.1-4.8-5 0-7.2 4.1-7.2 9.1s2.3 9.1 7.1 9.1c3.7 0 6-2.3 6.4-5.8h2.5c-.5 4.9-3.7 8-8.9 8-6.3 0-9.8-4.9-9.8-11.3z"/></g><path d="m50.4 24.8c0-.1 0-.2 0-.3 0-.3 0-.6 0-.9-.6-12.7-10.7-23-23.8-23.6-9.3-.5-16.3 4.8-17.1 13.4-.6 5.1 3.2 9.6 7.3 10.7 4.2 1.2 13.7 2.1 16.3 6.4 1.5 2.4.6 5.8-1.8 8.5-1 1 .3 2.7 1.5 1.9 7.2-4.5 9.2-15.1 2.2-18.6-4.3-2.2-11.4-3.9-14.5-4.7-6.7-1.7-4.5-12.6 6.1-12.2 10.9.4 19.3 9.5 18.7 20.5-.6 10.9-8.2 20.3-20.7 19.5-11.6-.7-18.2-8.1-20.3-16.9-.1-.4-.2-.8-.2-1.2-.5-4.4.4-8.5 2.2-12.1.5-.9.2-2-.7-2.6-1-.6-2.2-.3-2.8.7-2.2 4.2-3.2 9-2.6 14.2 1.3 11.9 10.9 21.4 22.8 22.4 14.9 1.3 27.4-10.5 27.4-25.1z" fill="url(#a)"/></svg>